<?xml version="1.0" standalone="no"?>
<!DOCTYPE svg PUBLIC "-//W3C//DTD SVG 20010904//EN"
 "http://www.w3.org/TR/2001/REC-SVG-20010904/DTD/svg10.dtd">
<svg version="1.0" xmlns="http://www.w3.org/2000/svg"
 width="180.000000pt" height="180.000000pt" viewBox="0 0 180.000000 180.000000"
 preserveAspectRatio="xMidYMid meet">
<metadata>
Created by potrace 1.11, written by Peter Selinger 2001-2013
</metadata>
<g transform="translate(0.000000,180.000000) scale(0.100000,-0.100000)"
fill="#000000" stroke="none">
<path d="M0 900 l0 -900 900 0 900 0 0 900 0 900 -900 0 -900 0 0 -900z m1233
530 c14 -11 29 -29 32 -40 4 -11 11 -17 17 -14 7 4 8 2 4 -5 -5 -7 6 -28 26
-50 60 -70 95 -116 110 -146 9 -17 26 -39 38 -50 50 -45 60 -84 60 -236 l0
-142 -34 -52 c-19 -28 -42 -58 -51 -65 -9 -7 -23 -27 -32 -44 -9 -17 -29 -47
-45 -66 -86 -104 -108 -132 -108 -141 0 -5 -9 -18 -20 -29 -18 -18 -33 -20
-182 -20 -209 0 -198 -10 -198 166 0 149 -7 166 -49 115 -14 -18 -39 -49 -56
-68 -16 -20 -39 -51 -50 -68 -40 -65 -97 -135 -110 -135 -17 0 -135 136 -165
190 -16 29 -44 65 -123 156 -27 30 -47 61 -45 67 4 11 78 51 181 96 69 30 64
42 -40 95 -40 20 -81 36 -91 36 -10 0 -27 9 -37 20 -17 18 -14 22 100 132 65
62 125 117 134 122 9 5 59 51 112 102 l96 94 250 0 c236 0 252 -1 276 -20z"/>
<path d="M685 1349 c-28 -28 -63 -57 -80 -66 -16 -8 -75 -59 -130 -112 -55
-53 -108 -100 -118 -106 -33 -18 -9 -39 108 -98 113 -56 147 -85 122 -105 -19
-15 -115 -62 -127 -62 -22 0 -109 -42 -114 -56 -6 -15 26 -74 67 -125 15 -19
46 -56 67 -82 22 -27 40 -52 40 -57 0 -15 51 -70 66 -70 7 0 21 15 30 32 18
36 42 69 90 126 17 20 37 48 44 62 7 14 38 53 69 87 78 87 81 82 81 -136 0
-124 4 -181 12 -189 8 -8 55 -12 145 -12 131 0 132 0 150 26 10 14 33 43 51
64 17 20 32 42 32 47 0 8 33 52 118 153 57 68 62 88 62 234 l0 135 -40 48
c-21 26 -52 64 -68 83 -16 19 -35 46 -42 60 -7 14 -27 42 -44 62 -17 21 -44
53 -59 73 l-29 35 -227 0 -227 0 -49 -51z"/>
</g>
</svg>
