<?xml version="1.0" encoding="UTF-8" standalone="no"?>
<svg
   xmlns:dc="http://purl.org/dc/elements/1.1/"
   xmlns:cc="http://creativecommons.org/ns#"
   xmlns:rdf="http://www.w3.org/1999/02/22-rdf-syntax-ns#"
   xmlns:svg="http://www.w3.org/2000/svg"
   xmlns="http://www.w3.org/2000/svg"
   xmlns:sodipodi="http://sodipodi.sourceforge.net/DTD/sodipodi-0.dtd"
   xmlns:inkscape="http://www.inkscape.org/namespaces/inkscape"
   version="1.1"
   viewBox="0 0 470 470"
   enable-background="new 0 0 470 470"
   id="svg4830"
   sodipodi:docname="ufo3b.svg"
   inkscape:version="0.92.2 5c3e80d, 2017-08-06">
  <metadata
     id="metadata4836">
    <rdf:RDF>
      <cc:Work
         rdf:about="">
        <dc:format>image/svg+xml</dc:format>
        <dc:type
           rdf:resource="http://purl.org/dc/dcmitype/StillImage" />
        <dc:title></dc:title>
      </cc:Work>
    </rdf:RDF>
  </metadata>
  <defs
     id="defs4834" />
  <sodipodi:namedview
     pagecolor="#ffffff"
     bordercolor="#666666"
     borderopacity="1"
     objecttolerance="10"
     gridtolerance="10"
     guidetolerance="10"
     inkscape:pageopacity="0"
     inkscape:pageshadow="2"
     inkscape:window-width="1406"
     inkscape:window-height="926"
     id="namedview4832"
     showgrid="false"
     inkscape:zoom="0.50212766"
     inkscape:cx="-121.48305"
     inkscape:cy="235"
     inkscape:window-x="0"
     inkscape:window-y="0"
     inkscape:window-maximized="0"
     inkscape:current-layer="svg4830" />
  <g
     id="g4828"
     style="stroke:#ffffff;stroke-opacity:1"
     transform="matrix(0.10581672,0,0,0.11432654,0.05290836,-9.8659232)">
    <path
       d="m 63.613,281.405 c 0,4.143 3.358,7.5 7.5,7.5 h 327.773 c 4.142,0 7.5,-3.357 7.5,-7.5 0,-4.143 -3.358,-7.5 -7.5,-7.5 H 71.113 c -4.142,0 -7.5,3.358 -7.5,7.5 z"
       id="path4824"
       style="stroke:#ffffff;stroke-opacity:1"
       inkscape:connector-curvature="0" />
    <path
       d="M 466.697,275.189 C 435.223,253.936 395.109,237.196 350.5,226.628 l -21.401,-55.644 c -5.063,-13.163 -20.076,-23.475 -34.18,-23.475 H 242.5 v -34.52 c 0,-4.143 -3.358,-7.5 -7.5,-7.5 -4.142,0 -7.5,3.357 -7.5,7.5 v 34.52 h -52.419 c -14.104,0 -29.117,10.312 -34.18,23.475 L 119.5,226.628 C 74.891,237.196 34.776,253.936 3.303,275.189 1.238,276.584 0,278.913 0,281.405 c 0,2.492 1.238,4.821 3.303,6.216 28.176,19.027 63.597,34.577 102.724,45.161 0.476,17.564 17.098,31.728 37.477,31.728 h 182.992 c 20.379,0 37.001,-14.164 37.477,-31.728 39.127,-10.583 74.548,-26.134 102.724,-45.161 2.065,-1.395 3.303,-3.724 3.303,-6.216 0,-2.492 -1.238,-4.821 -3.303,-6.216 z m -311.796,-98.82 c 2.84,-7.383 12.27,-13.859 20.18,-13.859 h 119.838 c 7.91,0 17.34,6.477 20.18,13.859 l 18.9,49.141 H 136.001 Z M 355.547,319.51 H 173.504 c -4.142,0 -7.5,3.357 -7.5,7.5 0,4.143 3.358,7.5 7.5,7.5 h 175.248 c -1.614,8.353 -11.149,15 -22.256,15 H 143.504 c -11.108,0 -20.642,-6.647 -22.256,-15 h 22.256 c 4.142,0 7.5,-3.357 7.5,-7.5 0,-4.143 -3.358,-7.5 -7.5,-7.5 H 114.453 C 79.527,310.486 47.623,297.405 21.384,281.405 50.504,263.637 86.373,249.586 125.927,240.51 h 218.146 c 39.554,9.075 75.423,23.127 104.543,40.895 -26.239,15.999 -58.143,29.08 -93.069,38.105 z"
       id="path4826"
       style="stroke:#ffffff;stroke-opacity:1"
       inkscape:connector-curvature="0" />
  </g>
</svg>
