<?xml version='1.0' encoding='iso-8859-1'?>
<svg version="1.1" xmlns="http://www.w3.org/2000/svg" viewBox="0 0 470 470" xmlns:xlink="http://www.w3.org/1999/xlink" enable-background="new 0 0 470 470">
  <g>
    <path d="m63.613,281.405c0,4.143 3.358,7.5 7.5,7.5h327.773c4.142,0 7.5-3.357 7.5-7.5s-3.358-7.5-7.5-7.5h-327.773c-4.142,0-7.5,3.358-7.5,7.5z"/>
    <path d="m466.697,275.189c-31.474-21.253-71.588-37.993-116.197-48.561l-21.401-55.644c-5.063-13.163-20.076-23.475-34.18-23.475h-52.419v-34.52c0-4.143-3.358-7.5-7.5-7.5s-7.5,3.357-7.5,7.5v34.52h-52.419c-14.104,0-29.117,10.312-34.18,23.475l-21.401,55.644c-44.609,10.568-84.724,27.308-116.197,48.561-2.065,1.395-3.303,3.724-3.303,6.216s1.238,4.821 3.303,6.216c28.176,19.027 63.597,34.577 102.724,45.161 0.476,17.564 17.098,31.728 37.477,31.728h182.992c20.379,0 37.001-14.164 37.477-31.728 39.127-10.583 74.548-26.134 102.724-45.161 2.065-1.395 3.303-3.724 3.303-6.216s-1.238-4.821-3.303-6.216zm-311.796-98.82c2.84-7.383 12.27-13.859 20.18-13.859h119.838c7.91,0 17.34,6.477 20.18,13.859l18.9,49.141h-197.998l18.9-49.141zm200.646,143.141h-182.043c-4.142,0-7.5,3.357-7.5,7.5s3.358,7.5 7.5,7.5h175.248c-1.614,8.353-11.149,15-22.256,15h-182.992c-11.108,0-20.642-6.647-22.256-15h22.256c4.142,0 7.5-3.357 7.5-7.5s-3.358-7.5-7.5-7.5h-29.051c-34.926-9.024-66.83-22.105-93.069-38.105 29.12-17.768 64.989-31.819 104.543-40.895h218.146c39.554,9.075 75.423,23.127 104.543,40.895-26.239,15.999-58.143,29.08-93.069,38.105z"/>
  </g>
</svg>
